# xmcd
# 
# Track frame offsets:
#     150
#     19745
#     38920
#     54322
#     73003
#     92625
#     108525
#     130415
#     151810
#     170070
# 
# Disc length: 2467
# 
# Revision: 0
# Processed by: cddbd v1.5.2PL0 Copyright (c) Steve Scherf et al.
# Submitted via: fre:ac v1.0.17
# 
DISCID=8209a10a
DTITLE=Corey Stevens - The Party's Gonna Go On 
DYEAR=2018
DGENRE=Blues
TTITLE0=Louisiana Queen
TTITLE1=Put All Your Faith
TTITLE2=Sad Blue Eyes
TTITLE3=Castaway
TTITLE4=One More Night in the Dark
TTITLE5=Move The Dial
TTITLE6=Over the Hill Blue
TTITLE7=Special Blend
TTITLE8=Golden Son
TTITLE9=More Blues on the Way
EXTD=
EXTT0=
EXTT1=
EXTT2=
EXTT3=
EXTT4=
EXTT5=
EXTT6=
EXTT7=
EXTT8=
EXTT9=
PLAYORDER=
